<?xml version="1.0" encoding="utf-8"?>
<!-- Generator: Adobe Illustrator 14.0.0, SVG Export Plug-In . SVG Version: 6.00 Build 43363)  -->
<!DOCTYPE svg PUBLIC "-//W3C//DTD SVG 1.1//EN" "http://www.w3.org/Graphics/SVG/1.1/DTD/svg11.dtd">
<svg version="1.1" id="Layer_1" xmlns="http://www.w3.org/2000/svg" xmlns:xlink="http://www.w3.org/1999/xlink" x="0px" y="0px"
	 width="940px" height="20px" viewBox="0 0 940 20" enable-background="new 0 0 940 20" xml:space="preserve">
<g>
	<path opacity="0.98" fill="#646565" enable-background="new    " d="M348.48,8.2l0.25-0.94c-3.229,0.51-6.5,0.38-9.76,0.33
		c-2.34-0.46-4.811,0.26-7.08-0.59c0.13,0.39,0.39,1.18,0.53,1.58c-1.04-0.32-3.101-0.95-4.131-1.26
		c-0.39,0.25-0.779,0.51-1.159,0.76c-1.33-0.43-2.681-0.7-4.07-0.8c0.32,0.85,0.65,1.7,0.979,2.55l3.471-1.25l0.02,1.84
		c0.43-0.69,0.87-1.38,1.32-2.06c1.92,2.17,4.49,0.39,6.82,0.96c2.149,0.65,4.199-0.82,6.229-1.22l-0.39,1.58
		c2.239-0.11,4.55-0.05,6.689-0.89c2.15,1.08,4.601,0.74,6.891,0.41l0.37,0.97c0.479-0.5,0.96-0.99,1.46-1.47
		c2.09,1.21,4.569,0.85,6.85,0.6c-2.17-2.12-5.42-1.35-8.11-2.07C353.75,9.33,350.93,8.23,348.48,8.2z"/>
	<path opacity="0.98" fill="#646565" enable-background="new    " d="M318.63,7.06l-1.94,1.6l-0.55-1.48
		c-0.33,0.88-0.66,1.76-0.98,2.64c1.57-0.37,3.13-0.77,4.71-1.13c0.57,0.31,1.7,0.92,2.271,1.22c-0.19-0.55-0.58-1.66-0.771-2.22
		L318.63,7.06z"/>
	<path opacity="0.98" fill="#646565" enable-background="new    " d="M257.16,7.61v0.56c-6.91-1.96-14.091,0.23-21.11-0.68
		l-0.01,1.41c1.51-0.3,3.029-0.62,4.54-0.95c-0.38,1.96,0.199,2.41,1.76,1.35c1.88,0.09,3.75,0.11,5.63,0.23l0.28-1.6
		c1.01,0.71,2.02,1.42,3.04,2.12c0.67-0.51,1.35-1.02,2.029-1.51l0.131,1.01c1.55-0.31,3.92,0.71,4.34-1.69
		c0.67,0.3,2.01,0.89,2.68,1.18c0.32,0.06,0.98,0.17,1.3,0.22l0.53,0.26c2.42-0.01,4.84-0.09,7.26-0.27c1.08,0.2,2.16,0.4,3.25,0.61
		c0.04-0.42,0.13-1.26,0.18-1.68C267.7,7.7,262.44,7.32,257.16,7.61z"/>
	<path opacity="0.98" fill="#646565" enable-background="new    " d="M227.64,7.23c-2.08,2.52-5.01,0.87-7.55,0.01
		c-0.72,0.36-1.43,0.729-2.12,1.13c-2.5-1.44-5.33-0.78-8-0.33l0.09-0.66c-1.96,0.3-3.93,0.27-5.899-0.12l-0.311,1.15
		c-0.88-0.28-2.64-0.84-3.53-1.12l-1.55,1.12l-0.27-1.18l-3.471,0.36c0.36,0.74,0.721,1.48,1.091,2.22
		c1.13-0.4,2.26-0.81,3.399-1.21l0.01,1.82c0.431-0.69,0.87-1.38,1.32-2.07c1.9,2.2,4.5,0.38,6.82,0.97
		c2.13,0.65,4.16-0.81,6.17-1.24l-0.29,1.57c2.33-0.17,4.87,0.28,6.85-1.26c1.471,2.26,4.67,0.77,6.86,0.75l0.18,1.09
		c0.48-0.52,0.971-1.04,1.471-1.55c1.439,0.63,6.199,2.29,5.869-0.52C232.41,7.76,230.01,7.64,227.64,7.23z"/>
	<path opacity="0.98" fill="#646565" enable-background="new    " d="M132.25,8l-1.84-0.51c-7.4,0.45-14.811-0.34-22.221,0.01
		c0.011,0.42,0.011,1.26,0.011,1.68c-0.591-0.33-1.78-1.01-2.37-1.35C100.85,8,95.98,6.97,91.06,6.48
		C76.95,6.41,64.08,13.1,50.48,15.84c-3.319,0.801-6.59-0.529-9.66-1.65c0.421-2.199,1.86-4.97-0.22-6.759
		c-1.47,0.13-2.78,0.71-3.93,1.75l3.57-0.12l-0.32,3.19l-1.19-2.11c-0.45,1.27-0.859,2.56-1.229,3.85
		c-4.33,2.189-9.38,2.6-14.07,1.5c-3.37-1.061-5.71-3.91-8.49-5.95c0.551,0.73,1.641,2.2,2.181,2.93c-2.42-0.7-4.841-1.43-7.25-2.2
		c1.319-0.48,2.64-0.96,3.97-1.42c0.86-2.69,1.689-5.4,2.33-8.15c-1.01,1.27-2,2.55-2.98,3.83c-1.31,0.32-2.609,0.66-3.91,1
		C7.1,3.99,4.92,2.43,2.77,0.83c0.82,2.19,1.49,4.43,1.96,6.72C4.82,6.73,5,5.09,5.1,4.27c1.53,1.98,3.04,3.98,4.55,5.98
		C8.56,9.81,6.38,8.95,5.3,8.51C3.53,9.89,1.73,11.22,0,12.65v0.859c2.29,0.09,4.569,0.21,6.859,0.32C7.51,15.9,8.15,17.97,8.9,20
		h1.721l-0.53-3.939l1.7,0.35L11,13.29c2.189,0.41,4.54,0.26,6.63,1.09c3.21,1.9,6.25,4.63,10.21,4.62
		c4.24,0.51,8.16-1.41,11.55-3.73c8.311,5.9,18.65,1.65,27.47-0.58c8.66-2.06,16.95-6.56,26.051-6.1c3.38,0.41,8.479,1.19,8.84,5.44
		c-2.48,4.829-8.561,2.079-12.45,0.899c2.979,3.41,8.16,4.381,12.21,2.48c3.14-1.71,1.5-5.77-0.08-8.01
		c3.43,0.13,6.85-0.08,10.271-0.14l0.569,0.15L120,9.45l-0.01-1.13c2.479,1.12,5.229,1.27,7.909,1.03
		c1.61-0.65,3.351-0.47,5.04-0.36l1.04-0.62c3.431,1.53,7.261,0.95,10.9,1.25l0.149-1.41C140.79,7.7,136.5,7.51,132.25,8z
		 M12.59,5.11c0.25,1.32-1.4,3.53-2.83,3.01C9.07,6.61,11.1,4.64,12.59,5.11z M1.7,12.73c2.52-0.92,5.09-1.721,7.689-2.391
		C8.06,13.7,4.63,13.75,1.7,12.73z M10.53,15.71C9.1,15.609,9.33,13.09,10,12.22C11.4,12.311,11.17,14.84,10.53,15.71z"/>
	<path opacity="0.98" fill="#646565" enable-background="new    " d="M383.28,7.28c-0.97,0.33-2.91,1.01-3.88,1.35
		c-4.59-2.79-10.27,0.05-15.3-1.15c-0.061,0.35-0.2,1.05-0.271,1.4c1.7-0.29,3.41-0.6,5.11-0.92l-0.68,2.1
		c0.74-0.31,1.479-0.62,2.229-0.93c0.96,0.23,1.931,0.46,2.91,0.69l-0.24-2.14l2.32,2.21c0.22-2.63,2.04-0.87,3.46-0.44
		C380.619,9.51,382.82,9.55,383.28,7.28z"/>
	<path opacity="0.98" fill="#646565" enable-background="new    " d="M190.77,6.83c-0.689,0.64-1.38,1.26-2.069,1.88l-0.53-1.55
		c-0.351,0.9-0.7,1.79-1.04,2.69c1.49-0.13,2.97-0.41,4.35-1.04l3.03,0.94C193.69,8.27,192.34,7.36,190.77,6.83z"/>
	<path opacity="0.98" fill="#646565" enable-background="new    " d="M150.38,7.27c-0.74,1.35,2.31,3.339,2.97,1.72
		C153.12,7.78,151.55,6.85,150.38,7.27z"/>
	<path opacity="0.98" fill="#646565" enable-background="new    " d="M278.38,7.25c-0.78,1.34,2.25,3.34,2.96,1.76
		C281.13,7.78,279.55,6.86,278.38,7.25z"/>
	<path opacity="0.98" fill="#646565" enable-background="new    " d="M800.26,8.16c-0.79-0.34-1.57-0.7-2.33-1.06l-2.18,1.06
		c-6.351-2.08-13.16,0.38-19.681-0.67l-0.12,1.38c1.65-0.29,3.311-0.6,4.98-0.93l-0.65,2.17l1.971-0.87
		c1.89,0.16,3.789,0.18,5.689,0.3l0.3-1.6c1.011,0.71,2.03,1.4,3.061,2.1c0.66-0.5,1.33-1,2.02-1.49l0.17,0.95
		c3.28,0.28,6.471-0.53,9.601-1.43l-0.5,1.46c3.42-0.15,6.87-0.32,10.27,0.18l0.16-1.5C808.789,7.93,804.44,7.15,800.26,8.16z"/>
	<path opacity="0.98" fill="#646565" enable-background="new    " d="M767.65,7.25c-2.55,2.73-6.09,0.31-9.16-0.13V8.7
		c-2.569-1.8-5.649-1.2-8.5-0.66l0.04-0.65c-1.97,0.28-3.939,0.24-5.899-0.12c-0.061,0.28-0.181,0.85-0.23,1.13
		c-0.899-0.27-2.689-0.8-3.58-1.07l-1.2,0.7c-1.34-0.36-2.699-0.62-4.069-0.75c0.319,0.85,0.649,1.71,1,2.56
		c1.16-0.44,2.319-0.88,3.5-1.33l-0.021,1.92c0.42-0.7,0.86-1.39,1.32-2.09c2.68,2.32,6.28,0.02,9.41,1.37l1.1-1.07l2.49-0.54
		l-0.32,1.56c2.55-0.14,5.29,0.19,7.45-1.53l-0.29,1.43c2.33-0.06,4.71-0.33,7.021,0.19c0.399-0.33,0.8-0.65,1.22-0.97
		c1.81,0.54,4.399,1.63,6.05,0.28C773.68,6.8,769.89,8.18,767.65,7.25z"/>
	<path opacity="0.98" fill="#646565" enable-background="new    " d="M730.77,6.84l-2.08,1.88l-0.53-1.68
		c-0.33,0.93-0.649,1.86-0.949,2.79c1.54-0.37,3.069-0.77,4.63-1.11l2.63,1.11C733.72,8.28,732.369,7.35,730.77,6.84z"/>
	<path opacity="0.98" fill="#646565" enable-background="new    " d="M818.369,7.28c-0.729,1.36,2.351,3.329,3,1.7
		C821.1,7.77,819.52,6.85,818.369,7.28z"/>
	<path opacity="0.98" fill="#646565" enable-background="new    " d="M933.869,9.59c0.62,0.75,1.851,2.23,2.46,2.98
		c-2.489-0.73-4.96-1.5-7.409-2.29c1.289-0.49,2.59-0.97,3.909-1.44c0.841-2.69,1.69-5.38,2.53-8.08c-1.89,2.18-4.07,4.11-6.87,4.98
		c-2.27-1.68-4.55-3.33-6.92-4.85c0.61,1.08,1.229,2.15,1.89,3.21l-0.12,3.49l0.841-3.33c1.47,2.01,2.939,4.01,4.449,6
		c-1.05-0.42-3.149-1.27-4.199-1.7c-5.15,3.64-10.761,7.73-17.37,7.49c-3.311,0.23-6.44-0.92-9.3-2.45
		c0.119-1.85,0.569-3.74,0.149-5.58c-1.26-0.78-2.46-0.75-3.62,0.1c-0.939,2,0.17,4.04,0.67,5.989c-3.26,1.32-6.819,2.58-10.35,1.61
		c-12.64-2.72-24.61-8.51-37.66-9.229c-4.479-0.2-9.54,0.2-12.91,3.479c-2.08,1.97-2.6,6.15,0.33,7.61
		c4.12,1.689,8.96,0.6,12.07-2.57c-3.59,0.82-7.63,3.04-11.13,0.811c-2.391-1.4-1.04-4.601,1.06-5.51
		c4.971-2.58,10.9-1.98,16.141-0.6c10.08,2.99,20.04,6.63,30.46,8.34c4.659,0.851,9.46-0.1,13.359-2.8
		c3.41,2.43,7.46,4.3,11.761,3.72c4.27-0.13,7.39-3.3,10.949-5.21c2.261-0.32,4.551,0.021,6.83,0.11c0.641,2.06,1.28,4.11,2.04,6.13
		h1.36c0.14-2.189,0.38-4.37,0.95-6.5c3.1,0.23,6.21,0.27,9.33,0.33C937.659,12.41,935.78,10.98,933.869,9.59z M896.959,11.52
		c-1.399,0.94-2.58-1.51-1.41-2.39C896.959,8.11,898.159,10.63,896.959,11.52z M931.589,5.13c0.23,1.31-1.409,3.53-2.819,2.97
		C928.049,6.59,930.1,4.6,931.589,5.13z M920.69,12.73c2.52-0.92,5.1-1.711,7.72-2.38C927.02,13.71,923.659,13.91,920.69,12.73z
		 M928.869,15.49c-0.689-1.12-0.65-2.221,0.14-3.28C930.57,12.02,930.249,15.55,928.869,15.49z"/>
	<path opacity="0.98" fill="#646565" enable-background="new    " d="M464.634,13.555c-5.738,3.285-13.148,3.427-18.885,0.065
		c0.03-1.91,1.58-6.42-1.77-6.12c-3.49,0.32-1.61,4.52-1.021,6.609c-3.3,1.341-6.89,2.601-10.46,1.591
		c-12.59-2.73-24.529-8.49-37.54-9.21c-4.01-0.3-7.949,0.63-11.81,1.57c-1.61,2.59-4.57,6.48-1.41,9.11
		c4.08,2.32,9.53,1.18,12.7-2.22c-3.57,0.89-7.61,3.11-11.12,0.88c-2.37-1.38-1.08-4.57,1-5.48c4.99-2.53,10.91-2.07,16.17-0.65
		c10.11,3,20.11,6.659,30.55,8.35c4.631,0.83,9.42-0.069,13.261-2.819c3.149,2.17,6.75,4.069,10.71,3.8
		c3.476,0.052,6.596-1.479,9.28-3.57C464.295,14.809,464.411,14.16,464.634,13.555z M444.97,11.5c-1.37,0.98-2.601-1.45-1.45-2.35
		C444.919,8.1,446.169,10.6,444.97,11.5z"/>
	<path opacity="0.98" fill="#646565" enable-background="new    " d="M561.32,7.21c-1.399,0.33-2.76,0.72-4.12,1.16
		c-4-1.08-8.069-2.19-12.25-1.9c-13.319,0.68-25.51,6.71-38.42,9.36c-3.34,0.82-6.63-0.52-9.71-1.63c0.48-2.13,1.48-4.43,0.3-6.52
		c-1.68-0.58-3.189,0.55-4.439,1.51c0.89-0.04,2.67-0.1,3.56-0.13l-0.319,3.19l-1.19-2.11c-0.45,1.27-0.86,2.549-1.22,3.83
		c-5.88,2.993-13.246,2.834-18.878-0.644c-0.002,0-0.003-0.001-0.004-0.002c-0.32-0.083-0.612-0.202-0.888-0.34
		c0.198,0.446,0.332,0.923,0.405,1.41c2.81,2.438,5.946,4.535,9.794,4.615c4.2,0.48,8.08-1.449,11.45-3.74
		c3.41,2.24,7.45,3.521,11.56,2.961c8.11-0.91,15.891-3.59,23.7-5.871c6.78-2.069,13.93-5.14,21.12-3.209
		c2.2,0.66,5.16,1.21,5.77,3.84c0.851,1.59-1.22,3.17-2.609,3.52c-3.32,0.98-6.521-0.79-9.65-1.59c3.09,3.51,8.73,4.6,12.74,2.13
		c2.67-2.11,0.63-5.739-0.78-8C558.74,8.78,560.119,8.14,561.32,7.21z"/>
	<path opacity="0.98" fill="#646565" enable-background="new    " d="M562.36,7.26c-0.729,1.36,2.36,3.36,2.99,1.7
		C565.07,7.76,563.52,6.83,562.36,7.26z"/>
	<path opacity="0.98" fill="#646565" enable-background="new    " d="M690.38,7.26c-0.74,1.36,2.329,3.37,2.979,1.72
		C693.09,7.78,691.539,6.84,690.38,7.26z"/>
	<path opacity="0.98" fill="#646565" enable-background="new    " d="M602.63,7.07l-1.94,1.58l-0.57-1.41
		c-0.33,0.86-0.649,1.72-0.96,2.58c1.57-0.37,3.13-0.77,4.721-1.13c0.569,0.31,1.72,0.92,2.3,1.22l-0.87-2.26
		C604.64,7.5,603.3,7.21,602.63,7.07z"/>
	<path opacity="0.98" fill="#646565" enable-background="new    " d="M672.19,8.11c-0.77-0.32-1.52-0.66-2.26-1
		c-0.73,0.35-1.45,0.69-2.17,1.03c-6.41-1.23-13.061-0.46-19.55-0.65h-0.001l-0.21,1.86c1.23-0.74,2.431-0.77,3.61-0.08l0.62,0.3
		c2.6-0.03,5.22-0.36,7.82-0.05c-0.04-0.36-0.12-1.09-0.171-1.46c3.82,2.22,8.66,1.65,12.761,0.56l-0.16,0.41
		c0.31,0.06,0.95,0.18,1.27,0.25l0.561,0.24c2.42,0,4.85-0.1,7.27-0.28l3.181,0.63l0.279-1.67C680.78,8.38,676.24,6.44,672.19,8.11z
		"/>
	<path opacity="0.98" fill="#646565" enable-background="new    " d="M630.47,7.12l0.05,1.61c-2.52-1.8-5.55-1.24-8.36-0.73
		l-0.26-0.55c-1.939,0.13-3.88,0.08-5.8-0.14l-0.15,1.07c-0.899-0.26-2.699-0.78-3.609-1.04c-0.42,0.23-0.83,0.46-1.23,0.69
		c-1.35-0.38-2.71-0.62-4.09-0.73c0.34,0.85,0.7,1.7,1.07,2.54c1.13-0.44,2.27-0.88,3.42-1.32l0.029,1.9
		c0.421-0.69,0.86-1.38,1.311-2.07c1.89,2.19,4.49,0.38,6.82,0.97c2.149,0.65,4.18-0.85,6.22-1.24l-0.39,1.59
		c2.56-0.15,5.31,0.18,7.479-1.54l-0.28,1.48c2.12-0.1,4.25-0.17,6.38-0.4l0.38,0.95c0.471-0.49,0.961-0.98,1.461-1.45
		c1.63,0.46,6,2.42,5.949-0.54c-2.399-0.4-4.83-0.53-7.229-0.92C637.09,9.99,633.539,7.55,630.47,7.12z"/>
</g>
<rect x="457.375" y="0.625" fill="none" width="24.5" height="18.5"/>
<text transform="matrix(1 0 0 1 463.5037 13.1699)" fill="#646565" font-family="'PlantagenetCherokee'" font-size="18">V</text>
<rect x="453.25" y="6.25" fill="none" width="32.75" height="19"/>
<text transform="matrix(1 0 0 1 461.4998 18.7949)" fill="#646565" font-family="'PlantagenetCherokee'" font-size="18">M</text>
</svg>
