<?xml version="1.0" encoding="utf-8"?>
<!-- Generator: Adobe Illustrator 14.0.0, SVG Export Plug-In . SVG Version: 6.00 Build 43363)  -->
<!DOCTYPE svg PUBLIC "-//W3C//DTD SVG 1.1//EN" "http://www.w3.org/Graphics/SVG/1.1/DTD/svg11.dtd">
<svg version="1.1" id="Layer_1" xmlns="http://www.w3.org/2000/svg" xmlns:xlink="http://www.w3.org/1999/xlink" x="0px" y="0px"
	 width="301px" height="35px" viewBox="0 0 301 35" enable-background="new 0 0 301 35" xml:space="preserve">
<g>
	<path fill="#646464" d="M127.16,21.2l-0.23,1.36c1.6,1.58,3.31,3.279,5.66,3.569C130.79,24.48,129,22.811,127.16,21.2z"/>
	<path fill="#646464" d="M207.83,0h-6.65C202.82,2.37,205.85,1.2,207.83,0z"/>
	<path fill="#646464" d="M139.303,25.381c-2.897,0.348-5.802-1.281-8.363-2.561c2.442,2.101,5.503,3.029,8.602,2.904
		C139.457,25.613,139.377,25.499,139.303,25.381z"/>
	<path fill="#646464" d="M164.36,14.06l-3.8,0.85c-0.045-0.063-0.089-0.125-0.135-0.188c0.228,0.558,0.361,1.157,0.397,1.764
		c0.009,0.012,0.021,0.021,0.029,0.033C161.78,15.407,163.129,14.784,164.36,14.06z"/>
	<path fill="#646464" d="M137.77,14c1.547,0.866,3.094,1.727,4.586,2.685c-0.045-0.503-0.024-1.012,0.063-1.508
		C140.868,14.777,139.323,14.375,137.77,14z"/>
	<path fill="#646464" d="M149.38,7.96c0.062,0.257,0.07,0.49,0.042,0.705c0.256-0.113,0.533-0.203,0.825-0.271
		c-0.532-1.097-0.673-2.512-1.167-3.634c-0.811-2.43-3.36-3.53-5.37-4.76h-4.101C144.12,0.16,149.19,2.96,149.38,7.96z"/>
	<path fill="#646464" d="M153.312,8.562c0.382-1.615,0.667-3.289,1.559-4.702c1.64-2.32,4.529-3.13,7.12-3.86h-3.07
		c-3.592,1.518-5.665,4.708-6.395,8.346C152.803,8.397,153.064,8.471,153.312,8.562z"/>
	<path fill="#646464" d="M291.68,0H280.1c-6.18,1.71-12.42,3.22-18.5,5.31c-5.95,1.73-12.64,4.41-18.5,0.93
		c1.07-2.13,1.12-4.3-0.43-6.24h-1.44c0.13,0.93,0.28,1.85,0.45,2.77l1.78-0.6c-2.07,1.91-3.57,4.86-6.561,5.44
		c-4.449,0.81-9.649,0.82-13.319-2.23C221.15,3.4,218.7,1.42,215.89,0h-3.79c5.28,0.82,11.03,4.37,11.851,10.05
		c0.59,3.81-3.061,6.2-5.44,8.47c1.2-4.26,0.3-9.85-4.15-11.819c-3.279-1.79-6.88-0.36-10.25,0.18c-1.949-0.72-2.609-2.53-2.6-4.5
		c-0.19,0.63-0.57,1.88-0.77,2.51c-0.95-0.4-2.87-1.2-3.83-1.6c1.84-0.49,3.68-0.96,5.52-1.42c-1.02-0.47-3.08-1.4-4.11-1.86
		l0.311,1.6c-1.09,0.38-2.19,0.77-3.28,1.16c-1.189-0.95-2.39-1.89-3.63-2.77h-2.64c-3.33,1.59-6.391,3.65-9.36,5.82
		c-1.44-0.76-2.88-1.54-4.32-2.31c2.08-1.29,4.19-2.52,6.431-3.51h-2.73c-1.46,0.95-2.93,1.87-4.399,2.8
		c-2.12-0.98-4.25-1.93-6.421-2.8h-3.819c3.35,0.29,6.42,1.71,9.34,3.29c-1.59,0.92-3.16,1.83-4.76,2.72
		c-2.71-0.76-5.9-1.69-8.53-0.31c-2.02,1.18-0.77,3.81-0.89,5.64c-0.233-0.041-0.463-0.101-0.694-0.147
		c0.169,0.192,0.318,0.399,0.452,0.616c2.907,0.257,5.734,1.138,8.672,1.192c2.58-0.04,4.92-1.25,7.22-2.29
		c1.311,0.73,2.61,1.47,3.92,2.21c-5.253,3.567-11.718,5.508-18.02,4.095c0.182,0.328,0.323,0.678,0.43,1.039
		c5.159,0.928,10.411,0.297,15.29-1.594c-2.93,3.05-5.89,6.101-9.35,8.56c0.84-0.359,1.68-0.709,2.52-1.06
		c4.23-3.399,7.47-7.95,12.311-10.6c-2.71,3.27-5.54,6.46-8.74,9.25c-0.98,0.961-2.17,1.41-3.57,1.351l1.8,0.39
		c-3.348,3.226-7.782,4.314-12.286,4.288c-0.013,0.01-0.024,0.021-0.036,0.03c3.332,0.145,6.937,0.729,9.803-1.357
		c9.53-6.121,15.31-17.21,26.35-21.13l0.07,2.35c-1.96,0.67-3.92,1.35-5.85,2.1c-1.561,1.48-3.271,2.8-5.051,4
		c-5.05,7.08-11.84,12.99-19.819,16.53c8.56-1.27,14.319-8.29,19.8-14.31c1.37-1.76,3.43-2.49,5.67-1.96
		c-0.7-0.59-1.41-1.15-2.14-1.69c1.909-0.96,3.83-1.89,5.84-2.64c-0.931,0.66-2.8,1.97-3.73,2.62c0.54,0.35,1.09,0.69,1.641,1.04
		c1.79-1.9,3.77-3.61,5.92-5.1l-1.32-1.07l-0.33-3.83l4.24,1.07l-1.16,2.39l2.29-1.14l1.04,0.68c-0.42,1.84-1.13,3.6-2.11,5.271
		c0.891-1.06,2.67-3.18,3.57-4.24c-0.21,2.12-0.44,4.23-0.55,6.36c0.49-2.2,0.819-4.43,1.109-6.66c2.671-0.41,5.54-1.25,8.12,0.01
		c2.32,0.74,3.34,3.07,4.511,4.98c-3.141,1.73-7.57,3.11-10.29-0.15c0.35-1.38,1.75-2.09,2.64-3.1c-1.39,0.97-2.8,1.92-4.19,2.88
		c2.96,3.64,8.21,3.45,12,1.28c-0.58,1.62-1.14,3.25-1.729,4.87l-1.98,0.65c-1.939,4.54-8.12,3.91-12.239,4.54
		c4.869,0.55,10.38,0.43,14.239-3.01c2.841-2.431,6.771-4.03,8.221-7.72c0.81-1.71,0.26-3.65,0.25-5.44
		c5.17,4.14,12.51,3.6,17.6-0.36c3.01,1.81,6.45,3.13,10.04,2.6c9.83-1.14,19.12-4.81,28.63-7.39c4.69-1.13,9.89-1.68,14.4,0.45
		c1.96,0.74,2.95,3.84,0.75,4.94c-3.11,1.85-6.511-0.11-9.58-0.95c2.87,3.38,9.06,4.49,12.18,0.94C299.6,3.8,295.53,0.31,291.68,0z
		 M169.46,11.66c-3.391,1.2-6.7-0.71-9.891-1.6c0.301-1.44,0.141-3.17,1.44-4.18c2.37-0.43,4.79-0.18,7.17,0.05
		c-1.59,1.23-3.439,2.01-5.31,2.69c2.729-0.48,5.46-1.15,8.25-1.03c0.199-2.02,2.42-2.62,3.8-3.7c1.32,0.82,2.64,1.64,3.97,2.45
		C175.89,8.35,172.82,10.33,169.46,11.66z M179.92,12.45c-1.351-0.7-2.7-1.4-4.04-2.11c1.479-1.03,2.96-2.06,4.43-3.11
		c1.07,0.54,2.13,1.08,3.19,1.63C182.31,10.06,181.12,11.26,179.92,12.45z M193.73,3.31c-3.63,1.05-7.09,2.63-9.96,5.14
		c-0.88-0.66-1.76-1.32-2.63-1.98c2.9-1.93,5.5-4.479,8.83-5.66C191.41,0.45,194.42,1.54,193.73,3.31z"/>
	<path fill="#646464" d="M140.879,18.106c0.471-0.265,1.015-0.449,1.625-0.54c-0.064-0.255-0.107-0.516-0.135-0.779
		c-6.516,1.836-13.3-0.159-18.759-3.868c1.33-0.74,2.67-1.48,4.021-2.21c2.34,1.07,4.74,2.35,7.399,2.29
		c3.24-0.16,6.37-1.15,9.61-1.22l-0.016,0.04c0.16-0.095,0.33-0.177,0.506-0.253c-0.986-0.391-1.976-0.779-2.96-1.156
		c-3.09,0.71-6.43,2.4-9.57,0.96c-3.07-1.34-5.859-3.24-8.7-5.01c1.36-0.85,2.721-1.69,4.091-2.54c1.529,1.16,3.069,2.33,4.579,3.52
		c2.53,0.43,5.061,0.89,7.58,1.41c-1.87-0.82-3.729-1.68-5.54-2.61c2.381-0.18,4.841-0.77,7.21-0.13c1.16,1.15,1.57,2.83,2.37,4.22
		c-0.63-1.59-0.43-4.01-2.3-4.74c-2.64-0.81-5.399-0.06-7.979,0.61c-1.66-0.95-3.29-1.95-4.9-2.98c1.54-0.57,3.13-0.98,4.77-1.12
		l0.15-1.36l3.79-0.46L135.06,0h-1.979c-1.41,1.19-3.11,1.96-4.74,2.8c-1.64-0.89-3.29-1.77-4.92-2.67L126.78,0h-6.14
		c2.42,0.81,4.63,2.09,6.79,3.41c-1.39,0.81-2.78,1.62-4.17,2.42c-3.1-2.19-6.28-4.3-9.76-5.83h-2.57
		c-1.17,0.94-2.29,1.94-3.39,2.95c-1.261-0.67-2.55-1.33-3.57-2.36c-1.41-0.21-2.81-0.41-4.22-0.59H93.6
		c2.65,0.31,5.25,0.91,7.851,1.51c-0.08,0.85-0.221,2.55-0.29,3.4l-2.54,2.24c-4.17-1.7-9.65-2.17-12.86,1.6
		c-2.7,2.33-2.77,6.03-2.29,9.3c-2.89-2.34-4.87-5.49-5.02-9.27c2.489-2.5,4.1-6.9,8.239-6.771c0.11-0.34,0.32-1.03,0.42-1.37
		l3.62-0.37L88.11,0h-2.08c-2.779,2.2-5.34,4.69-8.25,6.71C73.05,8.89,67.34,8.39,62.75,6.05C63.32,3.92,63.23,1.78,61.77,0H60.3
		c-1.021,2.07-1,4.21,0.09,6.25c-3,1.25-6.28,2.41-9.55,1.47C41.15,5.57,31.91,1.67,22.09,0H10.72L8.46,0.48
		C6.51,2.5,3.26,5.49,5.53,8.43c3.261,2.98,8.761,1.73,11.7-1.2C13.99,7.87,10.33,9.96,7.27,7.7C5.04,5.97,7.2,3.07,9.35,2.61
		c7.74-3.04,15.66,0.74,23.08,2.88c6.78,1.82,13.51,4.3,20.59,4.54c3.08,0.24,5.771-1.38,8.49-2.51c2.44,1.12,4.7,2.83,7.46,3.09
		c3.07,0.56,6-0.73,8.78-1.85c0.63,2.79,1.01,6.01,3.47,7.88c2.46,1.94,4.78,4.09,7.41,5.799c4.12,2.261,9.04,1.891,13.5,1.101
		c-4.74,0.31-10.08,0.22-13.7-3.34c3.771-0.23,8-0.03,11.061-2.67c2.51-1.63,2.35-4.84,2.979-7.43c-1.17-0.84-2.34-1.68-3.5-2.51
		l1.93-1.77c2.49,2.69,5.61,4.65,8.46,6.92c2.551,2,6.37,1.71,8.431,4.44c5.33,5.919,11.109,12.87,19.55,13.87
		c-0.86-0.44-2.57-1.31-3.43-1.739c-6.971-3.15-12.101-9.131-16.9-14.88c4.34,1.17,6.7,5.349,9.92,8.13l-0.18-3.16l-0.17,0.41
		l-0.32-0.23c-2.47-1.62-4.51-3.8-6.15-6.24c2.521,1.5,5.311,3.22,6.15,6.24l0.15-0.4l0.34,0.221c1.35,0.92,2.7,1.83,4.069,2.729
		c-1.81-2.04-3.699-4.021-5.6-5.98C130.178,18.243,135.595,18.982,140.879,18.106z M101.54,10.61l-0.84,4.54
		c-1.511-1.52-2.57-3.36-3.631-5.19c0.75,2.09,1.761,4.09,3.41,5.62c-3.319,3.64-8.729,4.48-13.37,3.49
		c-1.05-1.38-1.819-2.92-2.3-4.62c3.69,1,7.72,1.65,11.17-0.46L95.75,11.2c-0.851-0.43-1.7-0.86-2.54-1.3
		c0.99,0.8,2.17,1.61,1.93,3.09c-1.02,2.95-5.02,1.33-7.37,1.55c-0.8-1.01-1.609-2.01-2.37-3.05C88.85,5.6,97.04,6.49,101.54,10.61z
		 M112.9,0.78c3.32,1.36,6.03,3.8,8.971,5.79c-1.2,0.6-2.41,1.19-3.62,1.77c-2.561-2.43-5.771-3.87-9.101-4.92
		C108.26,1.29,111.38,0.7,112.9,0.78z M102.02,2.53c0.8-0.82,3.101,0.02,2.5,1.27C103.66,4.62,101.281,3.92,102.02,2.53z
		 M101.72,4.85l3.91-0.49c0.16,1.49,0.32,2.99,0.5,4.48C103.87,8.46,102.49,6.9,101.72,4.85z M109.13,11.21
		c1.1-0.42,3.2,0.56,2.97,1.87C111,13.44,108.85,12.56,109.13,11.21z M112.32,10.51c-2.01-1.09-6.119-0.87-5.75-4.12
		c2.65,0.75,5.15,1.97,7.261,3.77c1.689,1.15,3.26,2.49,4.55,4.09C115.73,14.39,114.06,12.12,112.32,10.51z M118.76,8.97
		c1.27-0.58,2.54-1.15,3.82-1.72c1.42,1.02,2.84,2.02,4.27,3.01l-3.939,2.28C121.52,11.36,120.13,10.17,118.76,8.97z"/>
	<path fill="#646464" d="M135.64,28.83l-1.729,0.48c2.794-0.505,5.628-0.661,8.46-0.673c-0.002-0.021-0.006-0.043-0.008-0.064
		c-3.39-0.207-6.862-0.512-9.772-2.443l-0.88,0.521C133.02,27.37,134.33,28.09,135.64,28.83z"/>
	<path fill="#646464" d="M61.01,2.23C59.54,5.28,64.33,2.39,61.01,2.23"/>
	<path fill="#646464" d="M107.32,5.16C107.57,8.46,110.28,3.55,107.32,5.16"/>
</g>
<rect x="125.99" y="8.04" fill="none" width="51.239" height="36.167"/>
<text transform="matrix(1 0 0 1 144.4675 22.6758)" fill="#646464" font-family="'PlantagenetCherokee'" font-size="21">V</text>
<rect x="130.567" y="14.498" fill="none" width="42.167" height="40.5"/>
<text transform="matrix(1 0 0 1 142.1707 29.1348)" fill="#646464" font-family="'PlantagenetCherokee'" font-size="21">M</text>
</svg>
